# xmcd CD database file
#
# Track frame offsets:
#	150
#	36953
#	64639
#	87347
#	123379
#	185436
#	226038
#	243601
#	262938
#	281026
#
# Disc length: 4024 seconds
#
# Revision: 0
# Processed by: cddbd v1.5.1PL0 Copyright (c) Steve Scherf et al.
# Submitted via: CDex 1.50beta10
#
DISCID=850fb60a
DTITLE=John Lee Hooker - The Cream [CD2]
DYEAR=2004
DGENRE=Blues
TTITLE0=Bar Room Drinking
TTITLE1=Little Girl
TTITLE2=Louise
TTITLE3=When My First Wife Left Me
TTITLE4=Boogie On
TTITLE5=Feel Good
TTITLE6=Boom, Boom
TTITLE7=It Serves Me Right To Suffer
TTITLE8=One Bourbon, One Scotch, One Beer
TTITLE9=Crawlin' King Snake
EXTD=YEAR: 2004
EXTT0=
EXTT1=
EXTT2=
EXTT3=
EXTT4=
EXTT5=
EXTT6=
EXTT7=
EXTT8=
EXTT9=
PLAYORDER=
